M48
; DRILL file {KiCad 5.1.9+dfsg1-1} date Wed Jan 11 12:06:31 2023
; FORMAT={-:-/ absolute / metric / decimal}
; #@! TF.CreationDate,2023-01-11T12:06:31+00:00
; #@! TF.GenerationSoftware,Kicad,Pcbnew,5.1.9+dfsg1-1
; #@! TF.FileFunction,Plated,1,2,PTH
FMAT,2
METRIC
T1C0.300
T2C1.000
T3C1.020
%
G90
G05
T1
X131.0Y-51.5
X132.0Y-92.0
X133.5Y-75.0
X136.5Y-55.0
X137.0Y-70.5
X138.5Y-50.88
X138.5Y-59.0
X138.5Y-101.0
X138.589Y-72.224
X139.0Y-97.5
X139.5Y-87.0
X141.0Y-53.0
X141.0Y-78.5
X142.0Y-77.5
X142.5Y-68.5
X143.0Y-52.38
X143.0Y-59.0
X144.5Y-97.5
X145.0Y-51.5
X145.0Y-87.0
X145.5Y-57.5
X146.0Y-77.5
X146.5Y-87.0
X146.5Y-99.5
X147.5Y-55.0
X147.5Y-74.5
X148.5Y-90.5
X148.75Y-53.75
X150.0Y-86.974
X150.0Y-92.5
X150.0Y-50.88
X151.0Y-74.5
X151.5Y-89.0
X152.0Y-50.88
X152.0Y-101.0
X152.262Y-87.594
X153.5Y-87.0
X154.5Y-89.0
X156.0Y-53.5
X157.5Y-101.0
X158.0Y-74.5
X158.5Y-92.0
X161.2Y-97.5
X161.5Y-50.88
X161.5Y-55.0
X161.85Y-96.5
X162.5Y-97.5
X163.15Y-96.5
X163.8Y-97.5
X164.0Y-71.0
X164.45Y-96.5
X165.0Y-85.5
X165.0Y-87.12
X165.1Y-97.5
X165.5Y-53.5
X165.75Y-96.5
X167.063Y-96.88
X167.5Y-52.12
X169.5Y-51.5
X170.0Y-96.88
X170.5Y-57.5
X172.5Y-55.0
X175.438Y-92.938
X175.5Y-91.0
X179.0Y-89.0
X179.5Y-79.5
X179.5Y-85.5
T2
X137.79Y-107.839
X139.175Y-110.679
X140.56Y-107.839
X141.945Y-110.679
X143.0Y-116.5
X143.0Y-119.04
X143.33Y-107.839
X144.715Y-110.679
X145.54Y-116.5
X145.54Y-119.04
X146.1Y-107.839
X147.485Y-110.679
X148.08Y-116.5
X148.08Y-119.04
X148.87Y-107.839
X150.255Y-110.679
X150.62Y-116.5
X150.62Y-119.04
X151.64Y-107.839
X153.025Y-110.679
X153.16Y-116.5
X153.16Y-119.04
X154.41Y-107.839
X155.7Y-116.5
X155.7Y-119.04
X155.795Y-110.679
X157.18Y-107.839
X158.24Y-116.5
X158.24Y-119.04
X158.565Y-110.679
X159.95Y-107.839
X160.78Y-116.5
X160.78Y-119.04
X161.335Y-110.679
X162.72Y-107.839
X163.32Y-116.5
X163.32Y-119.04
X164.105Y-110.679
X165.49Y-107.839
X165.86Y-116.5
X165.86Y-119.04
X166.875Y-110.679
X168.26Y-107.839
X169.645Y-110.679
X171.03Y-107.839
T3
X130.87Y-64.11
X130.87Y-81.89
X131.1Y-70.46
X131.1Y-73.0
X131.1Y-75.54
X133.41Y-64.11
X133.41Y-81.89
X135.95Y-64.11
X135.95Y-81.89
X138.49Y-64.11
X138.49Y-81.89
X141.03Y-64.11
X141.03Y-81.89
X143.57Y-64.11
X143.57Y-81.89
X146.11Y-64.11
X146.11Y-81.89
X148.65Y-64.11
X148.65Y-81.89
X151.19Y-64.11
X151.19Y-81.89
X153.73Y-64.11
X153.73Y-81.89
X156.27Y-64.11
X156.27Y-81.89
X158.81Y-64.11
X158.81Y-81.89
X161.35Y-64.11
X161.35Y-81.89
X163.89Y-64.11
X163.89Y-81.89
X166.43Y-64.11
X166.43Y-81.89
X168.97Y-64.11
X168.97Y-81.89
X171.51Y-64.11
X171.51Y-81.89
X174.05Y-64.11
X174.05Y-81.89
X176.59Y-64.11
X176.59Y-81.89
X179.13Y-64.11
X179.13Y-81.89
T0
M30
