%TF.GenerationSoftware,KiCad,Pcbnew,5.1.9+dfsg1-1*%
%TF.CreationDate,2023-01-11T12:06:23+00:00*%
%TF.ProjectId,Atari_ST_HDD_EMULATOR,41746172-695f-4535-945f-4844445f454d,1.0_dh219*%
%TF.SameCoordinates,Original*%
%TF.FileFunction,Legend,Top*%
%TF.FilePolarity,Positive*%
%FSLAX46Y46*%
G04 Gerber Fmt 4.6, Leading zero omitted, Abs format (unit mm)*
G04 Created by KiCad (PCBNEW 5.1.9+dfsg1-1) date 2023-01-11 12:06:23*
%MOMM*%
%LPD*%
G01*
G04 APERTURE LIST*
%ADD10C,0.070000*%
%ADD11C,0.150000*%
%ADD12C,0.120000*%
G04 APERTURE END LIST*
D10*
X142000000Y-100500000D02*
X142000000Y-87000000D01*
X168500000Y-96000000D02*
X168500000Y-86500000D01*
D11*
X157642857Y-85428571D02*
X157309523Y-85428571D01*
X157309523Y-85952380D02*
X157309523Y-84952380D01*
X157785714Y-84952380D01*
X158166666Y-85952380D02*
X158166666Y-84952380D01*
X158500000Y-84952380D02*
X159071428Y-84952380D01*
X158785714Y-85952380D02*
X158785714Y-84952380D01*
X160357142Y-84952380D02*
X160547619Y-84952380D01*
X160642857Y-85000000D01*
X160738095Y-85095238D01*
X160785714Y-85285714D01*
X160785714Y-85619047D01*
X160738095Y-85809523D01*
X160642857Y-85904761D01*
X160547619Y-85952380D01*
X160357142Y-85952380D01*
X160261904Y-85904761D01*
X160166666Y-85809523D01*
X160119047Y-85619047D01*
X160119047Y-85285714D01*
X160166666Y-85095238D01*
X160261904Y-85000000D01*
X160357142Y-84952380D01*
X161214285Y-85952380D02*
X161214285Y-84952380D01*
X161785714Y-85952380D01*
X161785714Y-84952380D01*
X162261904Y-85428571D02*
X162595238Y-85428571D01*
X162738095Y-85952380D02*
X162261904Y-85952380D01*
X162261904Y-84952380D01*
X162738095Y-84952380D01*
X164119047Y-84952380D02*
X164309523Y-84952380D01*
X164404761Y-85000000D01*
X164500000Y-85095238D01*
X164547619Y-85285714D01*
X164547619Y-85619047D01*
X164500000Y-85809523D01*
X164404761Y-85904761D01*
X164309523Y-85952380D01*
X164119047Y-85952380D01*
X164023809Y-85904761D01*
X163928571Y-85809523D01*
X163880952Y-85619047D01*
X163880952Y-85285714D01*
X163928571Y-85095238D01*
X164023809Y-85000000D01*
X164119047Y-84952380D01*
X165309523Y-85428571D02*
X164976190Y-85428571D01*
X164976190Y-85952380D02*
X164976190Y-84952380D01*
X165452380Y-84952380D01*
X166595238Y-84952380D02*
X166595238Y-85761904D01*
X166642857Y-85857142D01*
X166690476Y-85904761D01*
X166785714Y-85952380D01*
X166976190Y-85952380D01*
X167071428Y-85904761D01*
X167119047Y-85857142D01*
X167166666Y-85761904D01*
X167166666Y-84952380D01*
X168166666Y-85952380D02*
X167595238Y-85952380D01*
X167880952Y-85952380D02*
X167880952Y-84952380D01*
X167785714Y-85095238D01*
X167690476Y-85190476D01*
X167595238Y-85238095D01*
X169547619Y-84952380D02*
X169738095Y-84952380D01*
X169833333Y-85000000D01*
X169928571Y-85095238D01*
X169976190Y-85285714D01*
X169976190Y-85619047D01*
X169928571Y-85809523D01*
X169833333Y-85904761D01*
X169738095Y-85952380D01*
X169547619Y-85952380D01*
X169452380Y-85904761D01*
X169357142Y-85809523D01*
X169309523Y-85619047D01*
X169309523Y-85285714D01*
X169357142Y-85095238D01*
X169452380Y-85000000D01*
X169547619Y-84952380D01*
X170976190Y-85952380D02*
X170642857Y-85476190D01*
X170404761Y-85952380D02*
X170404761Y-84952380D01*
X170785714Y-84952380D01*
X170880952Y-85000000D01*
X170928571Y-85047619D01*
X170976190Y-85142857D01*
X170976190Y-85285714D01*
X170928571Y-85380952D01*
X170880952Y-85428571D01*
X170785714Y-85476190D01*
X170404761Y-85476190D01*
X172166666Y-84952380D02*
X172166666Y-85761904D01*
X172214285Y-85857142D01*
X172261904Y-85904761D01*
X172357142Y-85952380D01*
X172547619Y-85952380D01*
X172642857Y-85904761D01*
X172690476Y-85857142D01*
X172738095Y-85761904D01*
X172738095Y-84952380D01*
X173690476Y-84952380D02*
X173214285Y-84952380D01*
X173166666Y-85428571D01*
X173214285Y-85380952D01*
X173309523Y-85333333D01*
X173547619Y-85333333D01*
X173642857Y-85380952D01*
X173690476Y-85428571D01*
X173738095Y-85523809D01*
X173738095Y-85761904D01*
X173690476Y-85857142D01*
X173642857Y-85904761D01*
X173547619Y-85952380D01*
X173309523Y-85952380D01*
X173214285Y-85904761D01*
X173166666Y-85857142D01*
X130142857Y-85428571D02*
X129809523Y-85428571D01*
X129809523Y-85952380D02*
X129809523Y-84952380D01*
X130285714Y-84952380D01*
X130666666Y-85952380D02*
X130666666Y-84952380D01*
X131000000Y-84952380D02*
X131571428Y-84952380D01*
X131285714Y-85952380D02*
X131285714Y-84952380D01*
X132857142Y-84952380D02*
X133047619Y-84952380D01*
X133142857Y-85000000D01*
X133238095Y-85095238D01*
X133285714Y-85285714D01*
X133285714Y-85619047D01*
X133238095Y-85809523D01*
X133142857Y-85904761D01*
X133047619Y-85952380D01*
X132857142Y-85952380D01*
X132761904Y-85904761D01*
X132666666Y-85809523D01*
X132619047Y-85619047D01*
X132619047Y-85285714D01*
X132666666Y-85095238D01*
X132761904Y-85000000D01*
X132857142Y-84952380D01*
X133714285Y-85952380D02*
X133714285Y-84952380D01*
X134285714Y-85952380D01*
X134285714Y-84952380D01*
X134761904Y-85428571D02*
X135095238Y-85428571D01*
X135238095Y-85952380D02*
X134761904Y-85952380D01*
X134761904Y-84952380D01*
X135238095Y-84952380D01*
X136619047Y-84952380D02*
X136809523Y-84952380D01*
X136904761Y-85000000D01*
X137000000Y-85095238D01*
X137047619Y-85285714D01*
X137047619Y-85619047D01*
X137000000Y-85809523D01*
X136904761Y-85904761D01*
X136809523Y-85952380D01*
X136619047Y-85952380D01*
X136523809Y-85904761D01*
X136428571Y-85809523D01*
X136380952Y-85619047D01*
X136380952Y-85285714D01*
X136428571Y-85095238D01*
X136523809Y-85000000D01*
X136619047Y-84952380D01*
X137809523Y-85428571D02*
X137476190Y-85428571D01*
X137476190Y-85952380D02*
X137476190Y-84952380D01*
X137952380Y-84952380D01*
X139095238Y-84952380D02*
X139095238Y-85761904D01*
X139142857Y-85857142D01*
X139190476Y-85904761D01*
X139285714Y-85952380D01*
X139476190Y-85952380D01*
X139571428Y-85904761D01*
X139619047Y-85857142D01*
X139666666Y-85761904D01*
X139666666Y-84952380D01*
X140095238Y-85047619D02*
X140142857Y-85000000D01*
X140238095Y-84952380D01*
X140476190Y-84952380D01*
X140571428Y-85000000D01*
X140619047Y-85047619D01*
X140666666Y-85142857D01*
X140666666Y-85238095D01*
X140619047Y-85380952D01*
X140047619Y-85952380D01*
X140666666Y-85952380D01*
X142047619Y-84952380D02*
X142238095Y-84952380D01*
X142333333Y-85000000D01*
X142428571Y-85095238D01*
X142476190Y-85285714D01*
X142476190Y-85619047D01*
X142428571Y-85809523D01*
X142333333Y-85904761D01*
X142238095Y-85952380D01*
X142047619Y-85952380D01*
X141952380Y-85904761D01*
X141857142Y-85809523D01*
X141809523Y-85619047D01*
X141809523Y-85285714D01*
X141857142Y-85095238D01*
X141952380Y-85000000D01*
X142047619Y-84952380D01*
X143476190Y-85952380D02*
X143142857Y-85476190D01*
X142904761Y-85952380D02*
X142904761Y-84952380D01*
X143285714Y-84952380D01*
X143380952Y-85000000D01*
X143428571Y-85047619D01*
X143476190Y-85142857D01*
X143476190Y-85285714D01*
X143428571Y-85380952D01*
X143380952Y-85428571D01*
X143285714Y-85476190D01*
X142904761Y-85476190D01*
X144666666Y-84952380D02*
X144666666Y-85761904D01*
X144714285Y-85857142D01*
X144761904Y-85904761D01*
X144857142Y-85952380D01*
X145047619Y-85952380D01*
X145142857Y-85904761D01*
X145190476Y-85857142D01*
X145238095Y-85761904D01*
X145238095Y-84952380D01*
X146142857Y-84952380D02*
X145952380Y-84952380D01*
X145857142Y-85000000D01*
X145809523Y-85047619D01*
X145714285Y-85190476D01*
X145666666Y-85380952D01*
X145666666Y-85761904D01*
X145714285Y-85857142D01*
X145761904Y-85904761D01*
X145857142Y-85952380D01*
X146047619Y-85952380D01*
X146142857Y-85904761D01*
X146190476Y-85857142D01*
X146238095Y-85761904D01*
X146238095Y-85523809D01*
X146190476Y-85428571D01*
X146142857Y-85380952D01*
X146047619Y-85333333D01*
X145857142Y-85333333D01*
X145761904Y-85380952D01*
X145714285Y-85428571D01*
X145666666Y-85523809D01*
X157000000Y-84500000D02*
X180000000Y-84500000D01*
X157000000Y-96000000D02*
X157000000Y-84500000D01*
X180000000Y-96000000D02*
X157000000Y-96000000D01*
X180000000Y-84500000D02*
X180000000Y-96000000D01*
X129500000Y-92500000D02*
X129500000Y-84500000D01*
X137500000Y-100500000D02*
X129500000Y-92500000D01*
X152500000Y-100500000D02*
X137500000Y-100500000D01*
X152500000Y-84500000D02*
X152500000Y-100500000D01*
X129500000Y-84500000D02*
X152500000Y-84500000D01*
X148738095Y-112952380D02*
X148738095Y-111952380D01*
X148976190Y-111952380D01*
X149119047Y-112000000D01*
X149214285Y-112095238D01*
X149261904Y-112190476D01*
X149309523Y-112380952D01*
X149309523Y-112523809D01*
X149261904Y-112714285D01*
X149214285Y-112809523D01*
X149119047Y-112904761D01*
X148976190Y-112952380D01*
X148738095Y-112952380D01*
X150071428Y-112428571D02*
X150214285Y-112476190D01*
X150261904Y-112523809D01*
X150309523Y-112619047D01*
X150309523Y-112761904D01*
X150261904Y-112857142D01*
X150214285Y-112904761D01*
X150119047Y-112952380D01*
X149738095Y-112952380D01*
X149738095Y-111952380D01*
X150071428Y-111952380D01*
X150166666Y-112000000D01*
X150214285Y-112047619D01*
X150261904Y-112142857D01*
X150261904Y-112238095D01*
X150214285Y-112333333D01*
X150166666Y-112380952D01*
X150071428Y-112428571D01*
X149738095Y-112428571D01*
X150690476Y-112047619D02*
X150738095Y-112000000D01*
X150833333Y-111952380D01*
X151071428Y-111952380D01*
X151166666Y-112000000D01*
X151214285Y-112047619D01*
X151261904Y-112142857D01*
X151261904Y-112238095D01*
X151214285Y-112380952D01*
X150642857Y-112952380D01*
X151261904Y-112952380D01*
X152166666Y-111952380D02*
X151690476Y-111952380D01*
X151642857Y-112428571D01*
X151690476Y-112380952D01*
X151785714Y-112333333D01*
X152023809Y-112333333D01*
X152119047Y-112380952D01*
X152166666Y-112428571D01*
X152214285Y-112523809D01*
X152214285Y-112761904D01*
X152166666Y-112857142D01*
X152119047Y-112904761D01*
X152023809Y-112952380D01*
X151785714Y-112952380D01*
X151690476Y-112904761D01*
X151642857Y-112857142D01*
X153261904Y-111952380D02*
X153833333Y-111952380D01*
X153547619Y-112952380D02*
X153547619Y-111952380D01*
X154166666Y-112952380D02*
X154166666Y-111952380D01*
X154166666Y-112428571D02*
X154738095Y-112428571D01*
X154738095Y-112952380D02*
X154738095Y-111952380D01*
X155214285Y-112952380D02*
X155214285Y-111952380D01*
X155642857Y-112904761D02*
X155785714Y-112952380D01*
X156023809Y-112952380D01*
X156119047Y-112904761D01*
X156166666Y-112857142D01*
X156214285Y-112761904D01*
X156214285Y-112666666D01*
X156166666Y-112571428D01*
X156119047Y-112523809D01*
X156023809Y-112476190D01*
X155833333Y-112428571D01*
X155738095Y-112380952D01*
X155690476Y-112333333D01*
X155642857Y-112238095D01*
X155642857Y-112142857D01*
X155690476Y-112047619D01*
X155738095Y-112000000D01*
X155833333Y-111952380D01*
X156071428Y-111952380D01*
X156214285Y-112000000D01*
X157357142Y-112904761D02*
X157500000Y-112952380D01*
X157738095Y-112952380D01*
X157833333Y-112904761D01*
X157880952Y-112857142D01*
X157928571Y-112761904D01*
X157928571Y-112666666D01*
X157880952Y-112571428D01*
X157833333Y-112523809D01*
X157738095Y-112476190D01*
X157547619Y-112428571D01*
X157452380Y-112380952D01*
X157404761Y-112333333D01*
X157357142Y-112238095D01*
X157357142Y-112142857D01*
X157404761Y-112047619D01*
X157452380Y-112000000D01*
X157547619Y-111952380D01*
X157785714Y-111952380D01*
X157928571Y-112000000D01*
X158357142Y-112952380D02*
X158357142Y-111952380D01*
X158833333Y-112952380D02*
X158833333Y-111952380D01*
X159071428Y-111952380D01*
X159214285Y-112000000D01*
X159309523Y-112095238D01*
X159357142Y-112190476D01*
X159404761Y-112380952D01*
X159404761Y-112523809D01*
X159357142Y-112714285D01*
X159309523Y-112809523D01*
X159214285Y-112904761D01*
X159071428Y-112952380D01*
X158833333Y-112952380D01*
X159833333Y-112428571D02*
X160166666Y-112428571D01*
X160309523Y-112952380D02*
X159833333Y-112952380D01*
X159833333Y-111952380D01*
X160309523Y-111952380D01*
X148738095Y-52904761D02*
X148880952Y-52952380D01*
X149119047Y-52952380D01*
X149214285Y-52904761D01*
X149261904Y-52857142D01*
X149309523Y-52761904D01*
X149309523Y-52666666D01*
X149261904Y-52571428D01*
X149214285Y-52523809D01*
X149119047Y-52476190D01*
X148928571Y-52428571D01*
X148833333Y-52380952D01*
X148785714Y-52333333D01*
X148738095Y-52238095D01*
X148738095Y-52142857D01*
X148785714Y-52047619D01*
X148833333Y-52000000D01*
X148928571Y-51952380D01*
X149166666Y-51952380D01*
X149309523Y-52000000D01*
X149738095Y-52952380D02*
X149738095Y-51952380D01*
X149976190Y-51952380D01*
X150119047Y-52000000D01*
X150214285Y-52095238D01*
X150261904Y-52190476D01*
X150309523Y-52380952D01*
X150309523Y-52523809D01*
X150261904Y-52714285D01*
X150214285Y-52809523D01*
X150119047Y-52904761D01*
X149976190Y-52952380D01*
X149738095Y-52952380D01*
X150928571Y-51952380D02*
X151023809Y-51952380D01*
X151119047Y-52000000D01*
X151166666Y-52047619D01*
X151214285Y-52142857D01*
X151261904Y-52333333D01*
X151261904Y-52571428D01*
X151214285Y-52761904D01*
X151166666Y-52857142D01*
X151119047Y-52904761D01*
X151023809Y-52952380D01*
X150928571Y-52952380D01*
X150833333Y-52904761D01*
X150785714Y-52857142D01*
X150738095Y-52761904D01*
X150690476Y-52571428D01*
X150690476Y-52333333D01*
X150738095Y-52142857D01*
X150785714Y-52047619D01*
X150833333Y-52000000D01*
X150928571Y-51952380D01*
X173738095Y-52904761D02*
X173880952Y-52952380D01*
X174119047Y-52952380D01*
X174214285Y-52904761D01*
X174261904Y-52857142D01*
X174309523Y-52761904D01*
X174309523Y-52666666D01*
X174261904Y-52571428D01*
X174214285Y-52523809D01*
X174119047Y-52476190D01*
X173928571Y-52428571D01*
X173833333Y-52380952D01*
X173785714Y-52333333D01*
X173738095Y-52238095D01*
X173738095Y-52142857D01*
X173785714Y-52047619D01*
X173833333Y-52000000D01*
X173928571Y-51952380D01*
X174166666Y-51952380D01*
X174309523Y-52000000D01*
X174738095Y-52952380D02*
X174738095Y-51952380D01*
X174976190Y-51952380D01*
X175119047Y-52000000D01*
X175214285Y-52095238D01*
X175261904Y-52190476D01*
X175309523Y-52380952D01*
X175309523Y-52523809D01*
X175261904Y-52714285D01*
X175214285Y-52809523D01*
X175119047Y-52904761D01*
X174976190Y-52952380D01*
X174738095Y-52952380D01*
X176261904Y-52952380D02*
X175690476Y-52952380D01*
X175976190Y-52952380D02*
X175976190Y-51952380D01*
X175880952Y-52095238D01*
X175785714Y-52190476D01*
X175690476Y-52238095D01*
D12*
%TO.C,U6*%
X140385000Y-92000000D02*
X140385000Y-89800000D01*
X140385000Y-92000000D02*
X140385000Y-94200000D01*
X133615000Y-92000000D02*
X133615000Y-89800000D01*
X133615000Y-92000000D02*
X133615000Y-95600000D01*
%TO.C,U5*%
X166885000Y-92000000D02*
X166885000Y-89800000D01*
X166885000Y-92000000D02*
X166885000Y-94200000D01*
X160115000Y-92000000D02*
X160115000Y-89800000D01*
X160115000Y-92000000D02*
X160115000Y-95600000D01*
%TO.C,C6*%
X132735000Y-89701248D02*
X132735000Y-90223752D01*
X131265000Y-89701248D02*
X131265000Y-90223752D01*
%TO.C,C1*%
X159235000Y-89738748D02*
X159235000Y-90261252D01*
X157765000Y-89738748D02*
X157765000Y-90261252D01*
%TO.C,C2*%
X147265000Y-98238748D02*
X147265000Y-98761252D01*
X148735000Y-98238748D02*
X148735000Y-98761252D01*
%TO.C,C7*%
X139265000Y-70738748D02*
X139265000Y-71261252D01*
X140735000Y-70738748D02*
X140735000Y-71261252D01*
%TO.C,C3*%
X179735000Y-92261252D02*
X179735000Y-91738748D01*
X178265000Y-92261252D02*
X178265000Y-91738748D01*
%TO.C,C4*%
X150765000Y-91238748D02*
X150765000Y-91761252D01*
X152235000Y-91238748D02*
X152235000Y-91761252D01*
%TO.C,C5*%
X177701248Y-87735000D02*
X178223752Y-87735000D01*
X177701248Y-86265000D02*
X178223752Y-86265000D01*
%TO.C,J4*%
X136722360Y-50617100D02*
X136170700Y-50617100D01*
X136170700Y-54237141D02*
X136170700Y-56382900D01*
X142127000Y-56382900D02*
X142127000Y-56128900D01*
X141873000Y-56382900D02*
X142127000Y-56382900D01*
X141873000Y-56128900D02*
X141873000Y-56382900D01*
X142127000Y-56128900D02*
X141873000Y-56128900D01*
X147829300Y-56382900D02*
X147829300Y-54675941D01*
X136170700Y-56382900D02*
X147829300Y-56382900D01*
X136170700Y-50617100D02*
X136170700Y-51318361D01*
X146370324Y-50617100D02*
X138327640Y-50617100D01*
%TO.C,U3*%
X141390000Y-73000000D02*
X141390000Y-76600000D01*
X141390000Y-73000000D02*
X141390000Y-70800000D01*
X146610000Y-73000000D02*
X146610000Y-75200000D01*
X146610000Y-73000000D02*
X146610000Y-70800000D01*
%TO.C,R1*%
X163265000Y-68272936D02*
X163265000Y-68727064D01*
X164735000Y-68272936D02*
X164735000Y-68727064D01*
%TO.C,R4*%
X150265000Y-77272936D02*
X150265000Y-77727064D01*
X151735000Y-77272936D02*
X151735000Y-77727064D01*
%TO.C,R3*%
X136265000Y-77272936D02*
X136265000Y-77727064D01*
X137735000Y-77272936D02*
X137735000Y-77727064D01*
%TO.C,R2*%
X134235000Y-77727064D02*
X134235000Y-77272936D01*
X132765000Y-77727064D02*
X132765000Y-77272936D01*
%TO.C,R5*%
X158227064Y-54765000D02*
X157772936Y-54765000D01*
X158227064Y-56235000D02*
X157772936Y-56235000D01*
%TO.C,R6*%
X133227064Y-55265000D02*
X132772936Y-55265000D01*
X133227064Y-56735000D02*
X132772936Y-56735000D01*
%TO.C,D1*%
X159960000Y-54360000D02*
X159960000Y-51500000D01*
X158040000Y-54360000D02*
X159960000Y-54360000D01*
X158040000Y-51500000D02*
X158040000Y-54360000D01*
%TO.C,D2*%
X134960000Y-54360000D02*
X134960000Y-51500000D01*
X133040000Y-54360000D02*
X134960000Y-54360000D01*
X133040000Y-51500000D02*
X133040000Y-54360000D01*
%TO.C,C10*%
X142738748Y-58235000D02*
X143261252Y-58235000D01*
X142738748Y-56765000D02*
X143261252Y-56765000D01*
%TO.C,C9*%
X167738748Y-58235000D02*
X168261252Y-58235000D01*
X167738748Y-56765000D02*
X168261252Y-56765000D01*
%TO.C,C11*%
X169738748Y-67235000D02*
X170261252Y-67235000D01*
X169738748Y-65765000D02*
X170261252Y-65765000D01*
%TO.C,C8*%
X178261252Y-65765000D02*
X177738748Y-65765000D01*
X178261252Y-67235000D02*
X177738748Y-67235000D01*
%TO.C,U2*%
X149885000Y-92000000D02*
X149885000Y-88400000D01*
X149885000Y-92000000D02*
X149885000Y-94200000D01*
X143115000Y-92000000D02*
X143115000Y-89800000D01*
X143115000Y-92000000D02*
X143115000Y-94200000D01*
%TO.C,U1*%
X177385000Y-92000000D02*
X177385000Y-88400000D01*
X177385000Y-92000000D02*
X177385000Y-94200000D01*
X170615000Y-92000000D02*
X170615000Y-89800000D01*
X170615000Y-92000000D02*
X170615000Y-94200000D01*
%TO.C,J3*%
X161722360Y-50617100D02*
X161170700Y-50617100D01*
X161170700Y-54237141D02*
X161170700Y-56382900D01*
X167127000Y-56382900D02*
X167127000Y-56128900D01*
X166873000Y-56382900D02*
X167127000Y-56382900D01*
X166873000Y-56128900D02*
X166873000Y-56382900D01*
X167127000Y-56128900D02*
X166873000Y-56128900D01*
X172829300Y-56382900D02*
X172829300Y-54675941D01*
X161170700Y-56382900D02*
X172829300Y-56382900D01*
X161170700Y-50617100D02*
X161170700Y-51318361D01*
X171370324Y-50617100D02*
X163327640Y-50617100D01*
%TO.C,J1*%
X135543530Y-106997594D02*
X136442798Y-112097594D01*
X173276470Y-106997594D02*
X172377202Y-112097594D01*
X138077579Y-113469338D02*
X170742421Y-113469338D01*
X137178311Y-105049338D02*
X171641689Y-105049338D01*
X137790000Y-102488013D02*
X137540000Y-102055000D01*
X138040000Y-102055000D02*
X137790000Y-102488013D01*
X137540000Y-102055000D02*
X138040000Y-102055000D01*
X127800000Y-114509338D02*
X127800000Y-104009338D01*
X179960000Y-115569338D02*
X128860000Y-115569338D01*
X181020000Y-104009338D02*
X181020000Y-114509338D01*
X128860000Y-102949338D02*
X179960000Y-102949338D01*
X172377202Y-112097594D02*
G75*
G02*
X170742421Y-113469338I-1634781J288256D01*
G01*
X136442798Y-112097594D02*
G75*
G03*
X138077579Y-113469338I1634781J288256D01*
G01*
X173276470Y-106997594D02*
G75*
G03*
X171641689Y-105049338I-1634781J288256D01*
G01*
X135543530Y-106997594D02*
G75*
G02*
X137178311Y-105049338I1634781J288256D01*
G01*
X179960000Y-115569338D02*
G75*
G03*
X181020000Y-114509338I0J1060000D01*
G01*
X128860000Y-115569338D02*
G75*
G02*
X127800000Y-114509338I0J1060000D01*
G01*
X181020000Y-104009338D02*
G75*
G03*
X179960000Y-102949338I-1060000J0D01*
G01*
X128860000Y-102949338D02*
G75*
G03*
X127800000Y-104009338I0J-1060000D01*
G01*
%TO.C,U6*%
D11*
X136238095Y-86952380D02*
X136238095Y-87761904D01*
X136285714Y-87857142D01*
X136333333Y-87904761D01*
X136428571Y-87952380D01*
X136619047Y-87952380D01*
X136714285Y-87904761D01*
X136761904Y-87857142D01*
X136809523Y-87761904D01*
X136809523Y-86952380D01*
X137714285Y-86952380D02*
X137523809Y-86952380D01*
X137428571Y-87000000D01*
X137380952Y-87047619D01*
X137285714Y-87190476D01*
X137238095Y-87380952D01*
X137238095Y-87761904D01*
X137285714Y-87857142D01*
X137333333Y-87904761D01*
X137428571Y-87952380D01*
X137619047Y-87952380D01*
X137714285Y-87904761D01*
X137761904Y-87857142D01*
X137809523Y-87761904D01*
X137809523Y-87523809D01*
X137761904Y-87428571D01*
X137714285Y-87380952D01*
X137619047Y-87333333D01*
X137428571Y-87333333D01*
X137333333Y-87380952D01*
X137285714Y-87428571D01*
X137238095Y-87523809D01*
%TO.C,U5*%
X162738095Y-86952380D02*
X162738095Y-87761904D01*
X162785714Y-87857142D01*
X162833333Y-87904761D01*
X162928571Y-87952380D01*
X163119047Y-87952380D01*
X163214285Y-87904761D01*
X163261904Y-87857142D01*
X163309523Y-87761904D01*
X163309523Y-86952380D01*
X164261904Y-86952380D02*
X163785714Y-86952380D01*
X163738095Y-87428571D01*
X163785714Y-87380952D01*
X163880952Y-87333333D01*
X164119047Y-87333333D01*
X164214285Y-87380952D01*
X164261904Y-87428571D01*
X164309523Y-87523809D01*
X164309523Y-87761904D01*
X164261904Y-87857142D01*
X164214285Y-87904761D01*
X164119047Y-87952380D01*
X163880952Y-87952380D01*
X163785714Y-87904761D01*
X163738095Y-87857142D01*
%TO.C,C6*%
X130857142Y-90166666D02*
X130904761Y-90214285D01*
X130952380Y-90357142D01*
X130952380Y-90452380D01*
X130904761Y-90595238D01*
X130809523Y-90690476D01*
X130714285Y-90738095D01*
X130523809Y-90785714D01*
X130380952Y-90785714D01*
X130190476Y-90738095D01*
X130095238Y-90690476D01*
X130000000Y-90595238D01*
X129952380Y-90452380D01*
X129952380Y-90357142D01*
X130000000Y-90214285D01*
X130047619Y-90166666D01*
X129952380Y-89309523D02*
X129952380Y-89500000D01*
X130000000Y-89595238D01*
X130047619Y-89642857D01*
X130190476Y-89738095D01*
X130380952Y-89785714D01*
X130761904Y-89785714D01*
X130857142Y-89738095D01*
X130904761Y-89690476D01*
X130952380Y-89595238D01*
X130952380Y-89404761D01*
X130904761Y-89309523D01*
X130857142Y-89261904D01*
X130761904Y-89214285D01*
X130523809Y-89214285D01*
X130428571Y-89261904D01*
X130380952Y-89309523D01*
X130333333Y-89404761D01*
X130333333Y-89595238D01*
X130380952Y-89690476D01*
X130428571Y-89738095D01*
X130523809Y-89785714D01*
%TO.C,C1*%
X158857142Y-93166666D02*
X158904761Y-93214285D01*
X158952380Y-93357142D01*
X158952380Y-93452380D01*
X158904761Y-93595238D01*
X158809523Y-93690476D01*
X158714285Y-93738095D01*
X158523809Y-93785714D01*
X158380952Y-93785714D01*
X158190476Y-93738095D01*
X158095238Y-93690476D01*
X158000000Y-93595238D01*
X157952380Y-93452380D01*
X157952380Y-93357142D01*
X158000000Y-93214285D01*
X158047619Y-93166666D01*
X158952380Y-92214285D02*
X158952380Y-92785714D01*
X158952380Y-92500000D02*
X157952380Y-92500000D01*
X158095238Y-92595238D01*
X158190476Y-92690476D01*
X158238095Y-92785714D01*
%TO.C,C2*%
X150037142Y-98666666D02*
X150084761Y-98714285D01*
X150132380Y-98857142D01*
X150132380Y-98952380D01*
X150084761Y-99095238D01*
X149989523Y-99190476D01*
X149894285Y-99238095D01*
X149703809Y-99285714D01*
X149560952Y-99285714D01*
X149370476Y-99238095D01*
X149275238Y-99190476D01*
X149180000Y-99095238D01*
X149132380Y-98952380D01*
X149132380Y-98857142D01*
X149180000Y-98714285D01*
X149227619Y-98666666D01*
X149227619Y-98285714D02*
X149180000Y-98238095D01*
X149132380Y-98142857D01*
X149132380Y-97904761D01*
X149180000Y-97809523D01*
X149227619Y-97761904D01*
X149322857Y-97714285D01*
X149418095Y-97714285D01*
X149560952Y-97761904D01*
X150132380Y-98333333D01*
X150132380Y-97714285D01*
%TO.C,C7*%
X140357142Y-68166666D02*
X140404761Y-68214285D01*
X140452380Y-68357142D01*
X140452380Y-68452380D01*
X140404761Y-68595238D01*
X140309523Y-68690476D01*
X140214285Y-68738095D01*
X140023809Y-68785714D01*
X139880952Y-68785714D01*
X139690476Y-68738095D01*
X139595238Y-68690476D01*
X139500000Y-68595238D01*
X139452380Y-68452380D01*
X139452380Y-68357142D01*
X139500000Y-68214285D01*
X139547619Y-68166666D01*
X139452380Y-67833333D02*
X139452380Y-67166666D01*
X140452380Y-67595238D01*
%TO.C,C3*%
X179357142Y-95166666D02*
X179404761Y-95214285D01*
X179452380Y-95357142D01*
X179452380Y-95452380D01*
X179404761Y-95595238D01*
X179309523Y-95690476D01*
X179214285Y-95738095D01*
X179023809Y-95785714D01*
X178880952Y-95785714D01*
X178690476Y-95738095D01*
X178595238Y-95690476D01*
X178500000Y-95595238D01*
X178452380Y-95452380D01*
X178452380Y-95357142D01*
X178500000Y-95214285D01*
X178547619Y-95166666D01*
X178452380Y-94833333D02*
X178452380Y-94214285D01*
X178833333Y-94547619D01*
X178833333Y-94404761D01*
X178880952Y-94309523D01*
X178928571Y-94261904D01*
X179023809Y-94214285D01*
X179261904Y-94214285D01*
X179357142Y-94261904D01*
X179404761Y-94309523D01*
X179452380Y-94404761D01*
X179452380Y-94690476D01*
X179404761Y-94785714D01*
X179357142Y-94833333D01*
%TO.C,C4*%
X151857142Y-94666666D02*
X151904761Y-94714285D01*
X151952380Y-94857142D01*
X151952380Y-94952380D01*
X151904761Y-95095238D01*
X151809523Y-95190476D01*
X151714285Y-95238095D01*
X151523809Y-95285714D01*
X151380952Y-95285714D01*
X151190476Y-95238095D01*
X151095238Y-95190476D01*
X151000000Y-95095238D01*
X150952380Y-94952380D01*
X150952380Y-94857142D01*
X151000000Y-94714285D01*
X151047619Y-94666666D01*
X151285714Y-93809523D02*
X151952380Y-93809523D01*
X150904761Y-94047619D02*
X151619047Y-94285714D01*
X151619047Y-93666666D01*
%TO.C,C5*%
X178833333Y-88857142D02*
X178785714Y-88904761D01*
X178642857Y-88952380D01*
X178547619Y-88952380D01*
X178404761Y-88904761D01*
X178309523Y-88809523D01*
X178261904Y-88714285D01*
X178214285Y-88523809D01*
X178214285Y-88380952D01*
X178261904Y-88190476D01*
X178309523Y-88095238D01*
X178404761Y-88000000D01*
X178547619Y-87952380D01*
X178642857Y-87952380D01*
X178785714Y-88000000D01*
X178833333Y-88047619D01*
X179738095Y-87952380D02*
X179261904Y-87952380D01*
X179214285Y-88428571D01*
X179261904Y-88380952D01*
X179357142Y-88333333D01*
X179595238Y-88333333D01*
X179690476Y-88380952D01*
X179738095Y-88428571D01*
X179785714Y-88523809D01*
X179785714Y-88761904D01*
X179738095Y-88857142D01*
X179690476Y-88904761D01*
X179595238Y-88952380D01*
X179357142Y-88952380D01*
X179261904Y-88904761D01*
X179214285Y-88857142D01*
%TO.C,J4*%
X141666666Y-52952380D02*
X141666666Y-53666666D01*
X141619047Y-53809523D01*
X141523809Y-53904761D01*
X141380952Y-53952380D01*
X141285714Y-53952380D01*
X142571428Y-53285714D02*
X142571428Y-53952380D01*
X142333333Y-52904761D02*
X142095238Y-53619047D01*
X142714285Y-53619047D01*
X140989999Y-54383280D02*
X140989999Y-54621376D01*
X140751903Y-54526138D02*
X140989999Y-54621376D01*
X141228094Y-54526138D01*
X140847141Y-54811852D02*
X140989999Y-54621376D01*
X141132856Y-54811852D01*
X140989999Y-54383280D02*
X140989999Y-54621376D01*
X140751903Y-54526138D02*
X140989999Y-54621376D01*
X141228094Y-54526138D01*
X140847141Y-54811852D02*
X140989999Y-54621376D01*
X141132856Y-54811852D01*
%TO.C,U3*%
X146952380Y-73761904D02*
X147761904Y-73761904D01*
X147857142Y-73714285D01*
X147904761Y-73666666D01*
X147952380Y-73571428D01*
X147952380Y-73380952D01*
X147904761Y-73285714D01*
X147857142Y-73238095D01*
X147761904Y-73190476D01*
X146952380Y-73190476D01*
X146952380Y-72809523D02*
X146952380Y-72190476D01*
X147333333Y-72523809D01*
X147333333Y-72380952D01*
X147380952Y-72285714D01*
X147428571Y-72238095D01*
X147523809Y-72190476D01*
X147761904Y-72190476D01*
X147857142Y-72238095D01*
X147904761Y-72285714D01*
X147952380Y-72380952D01*
X147952380Y-72666666D01*
X147904761Y-72761904D01*
X147857142Y-72809523D01*
%TO.C,R1*%
X166102380Y-68666666D02*
X165626190Y-69000000D01*
X166102380Y-69238095D02*
X165102380Y-69238095D01*
X165102380Y-68857142D01*
X165150000Y-68761904D01*
X165197619Y-68714285D01*
X165292857Y-68666666D01*
X165435714Y-68666666D01*
X165530952Y-68714285D01*
X165578571Y-68761904D01*
X165626190Y-68857142D01*
X165626190Y-69238095D01*
X166102380Y-67714285D02*
X166102380Y-68285714D01*
X166102380Y-68000000D02*
X165102380Y-68000000D01*
X165245238Y-68095238D01*
X165340476Y-68190476D01*
X165388095Y-68285714D01*
%TO.C,R4*%
X153102380Y-77666666D02*
X152626190Y-78000000D01*
X153102380Y-78238095D02*
X152102380Y-78238095D01*
X152102380Y-77857142D01*
X152150000Y-77761904D01*
X152197619Y-77714285D01*
X152292857Y-77666666D01*
X152435714Y-77666666D01*
X152530952Y-77714285D01*
X152578571Y-77761904D01*
X152626190Y-77857142D01*
X152626190Y-78238095D01*
X152435714Y-76809523D02*
X153102380Y-76809523D01*
X152054761Y-77047619D02*
X152769047Y-77285714D01*
X152769047Y-76666666D01*
%TO.C,R3*%
X135952380Y-77666666D02*
X135476190Y-78000000D01*
X135952380Y-78238095D02*
X134952380Y-78238095D01*
X134952380Y-77857142D01*
X135000000Y-77761904D01*
X135047619Y-77714285D01*
X135142857Y-77666666D01*
X135285714Y-77666666D01*
X135380952Y-77714285D01*
X135428571Y-77761904D01*
X135476190Y-77857142D01*
X135476190Y-78238095D01*
X134952380Y-77333333D02*
X134952380Y-76714285D01*
X135333333Y-77047619D01*
X135333333Y-76904761D01*
X135380952Y-76809523D01*
X135428571Y-76761904D01*
X135523809Y-76714285D01*
X135761904Y-76714285D01*
X135857142Y-76761904D01*
X135904761Y-76809523D01*
X135952380Y-76904761D01*
X135952380Y-77190476D01*
X135904761Y-77285714D01*
X135857142Y-77333333D01*
%TO.C,R2*%
X132302380Y-77666666D02*
X131826190Y-78000000D01*
X132302380Y-78238095D02*
X131302380Y-78238095D01*
X131302380Y-77857142D01*
X131350000Y-77761904D01*
X131397619Y-77714285D01*
X131492857Y-77666666D01*
X131635714Y-77666666D01*
X131730952Y-77714285D01*
X131778571Y-77761904D01*
X131826190Y-77857142D01*
X131826190Y-78238095D01*
X131397619Y-77285714D02*
X131350000Y-77238095D01*
X131302380Y-77142857D01*
X131302380Y-76904761D01*
X131350000Y-76809523D01*
X131397619Y-76761904D01*
X131492857Y-76714285D01*
X131588095Y-76714285D01*
X131730952Y-76761904D01*
X132302380Y-77333333D01*
X132302380Y-76714285D01*
%TO.C,R5*%
X157833333Y-57602380D02*
X157500000Y-57126190D01*
X157261904Y-57602380D02*
X157261904Y-56602380D01*
X157642857Y-56602380D01*
X157738095Y-56650000D01*
X157785714Y-56697619D01*
X157833333Y-56792857D01*
X157833333Y-56935714D01*
X157785714Y-57030952D01*
X157738095Y-57078571D01*
X157642857Y-57126190D01*
X157261904Y-57126190D01*
X158738095Y-56602380D02*
X158261904Y-56602380D01*
X158214285Y-57078571D01*
X158261904Y-57030952D01*
X158357142Y-56983333D01*
X158595238Y-56983333D01*
X158690476Y-57030952D01*
X158738095Y-57078571D01*
X158785714Y-57173809D01*
X158785714Y-57411904D01*
X158738095Y-57507142D01*
X158690476Y-57554761D01*
X158595238Y-57602380D01*
X158357142Y-57602380D01*
X158261904Y-57554761D01*
X158214285Y-57507142D01*
%TO.C,R6*%
X132833333Y-58102380D02*
X132500000Y-57626190D01*
X132261904Y-58102380D02*
X132261904Y-57102380D01*
X132642857Y-57102380D01*
X132738095Y-57150000D01*
X132785714Y-57197619D01*
X132833333Y-57292857D01*
X132833333Y-57435714D01*
X132785714Y-57530952D01*
X132738095Y-57578571D01*
X132642857Y-57626190D01*
X132261904Y-57626190D01*
X133690476Y-57102380D02*
X133500000Y-57102380D01*
X133404761Y-57150000D01*
X133357142Y-57197619D01*
X133261904Y-57340476D01*
X133214285Y-57530952D01*
X133214285Y-57911904D01*
X133261904Y-58007142D01*
X133309523Y-58054761D01*
X133404761Y-58102380D01*
X133595238Y-58102380D01*
X133690476Y-58054761D01*
X133738095Y-58007142D01*
X133785714Y-57911904D01*
X133785714Y-57673809D01*
X133738095Y-57578571D01*
X133690476Y-57530952D01*
X133595238Y-57483333D01*
X133404761Y-57483333D01*
X133309523Y-57530952D01*
X133261904Y-57578571D01*
X133214285Y-57673809D01*
%TO.C,D1*%
X157802380Y-53238095D02*
X156802380Y-53238095D01*
X156802380Y-53000000D01*
X156850000Y-52857142D01*
X156945238Y-52761904D01*
X157040476Y-52714285D01*
X157230952Y-52666666D01*
X157373809Y-52666666D01*
X157564285Y-52714285D01*
X157659523Y-52761904D01*
X157754761Y-52857142D01*
X157802380Y-53000000D01*
X157802380Y-53238095D01*
X157802380Y-51714285D02*
X157802380Y-52285714D01*
X157802380Y-52000000D02*
X156802380Y-52000000D01*
X156945238Y-52095238D01*
X157040476Y-52190476D01*
X157088095Y-52285714D01*
%TO.C,D2*%
X132802380Y-53238095D02*
X131802380Y-53238095D01*
X131802380Y-53000000D01*
X131850000Y-52857142D01*
X131945238Y-52761904D01*
X132040476Y-52714285D01*
X132230952Y-52666666D01*
X132373809Y-52666666D01*
X132564285Y-52714285D01*
X132659523Y-52761904D01*
X132754761Y-52857142D01*
X132802380Y-53000000D01*
X132802380Y-53238095D01*
X131897619Y-52285714D02*
X131850000Y-52238095D01*
X131802380Y-52142857D01*
X131802380Y-51904761D01*
X131850000Y-51809523D01*
X131897619Y-51761904D01*
X131992857Y-51714285D01*
X132088095Y-51714285D01*
X132230952Y-51761904D01*
X132802380Y-52333333D01*
X132802380Y-51714285D01*
%TO.C,C10*%
X139319642Y-57857142D02*
X139272023Y-57904761D01*
X139129166Y-57952380D01*
X139033928Y-57952380D01*
X138891071Y-57904761D01*
X138795833Y-57809523D01*
X138748214Y-57714285D01*
X138700595Y-57523809D01*
X138700595Y-57380952D01*
X138748214Y-57190476D01*
X138795833Y-57095238D01*
X138891071Y-57000000D01*
X139033928Y-56952380D01*
X139129166Y-56952380D01*
X139272023Y-57000000D01*
X139319642Y-57047619D01*
X140272023Y-57952380D02*
X139700595Y-57952380D01*
X139986309Y-57952380D02*
X139986309Y-56952380D01*
X139891071Y-57095238D01*
X139795833Y-57190476D01*
X139700595Y-57238095D01*
X140891071Y-56952380D02*
X140986309Y-56952380D01*
X141081547Y-57000000D01*
X141129166Y-57047619D01*
X141176785Y-57142857D01*
X141224404Y-57333333D01*
X141224404Y-57571428D01*
X141176785Y-57761904D01*
X141129166Y-57857142D01*
X141081547Y-57904761D01*
X140986309Y-57952380D01*
X140891071Y-57952380D01*
X140795833Y-57904761D01*
X140748214Y-57857142D01*
X140700595Y-57761904D01*
X140652976Y-57571428D01*
X140652976Y-57333333D01*
X140700595Y-57142857D01*
X140748214Y-57047619D01*
X140795833Y-57000000D01*
X140891071Y-56952380D01*
%TO.C,C9*%
X164833333Y-57857142D02*
X164785714Y-57904761D01*
X164642857Y-57952380D01*
X164547619Y-57952380D01*
X164404761Y-57904761D01*
X164309523Y-57809523D01*
X164261904Y-57714285D01*
X164214285Y-57523809D01*
X164214285Y-57380952D01*
X164261904Y-57190476D01*
X164309523Y-57095238D01*
X164404761Y-57000000D01*
X164547619Y-56952380D01*
X164642857Y-56952380D01*
X164785714Y-57000000D01*
X164833333Y-57047619D01*
X165309523Y-57952380D02*
X165500000Y-57952380D01*
X165595238Y-57904761D01*
X165642857Y-57857142D01*
X165738095Y-57714285D01*
X165785714Y-57523809D01*
X165785714Y-57142857D01*
X165738095Y-57047619D01*
X165690476Y-57000000D01*
X165595238Y-56952380D01*
X165404761Y-56952380D01*
X165309523Y-57000000D01*
X165261904Y-57047619D01*
X165214285Y-57142857D01*
X165214285Y-57380952D01*
X165261904Y-57476190D01*
X165309523Y-57523809D01*
X165404761Y-57571428D01*
X165595238Y-57571428D01*
X165690476Y-57523809D01*
X165738095Y-57476190D01*
X165785714Y-57380952D01*
%TO.C,C11*%
X169357142Y-68857142D02*
X169309523Y-68904761D01*
X169166666Y-68952380D01*
X169071428Y-68952380D01*
X168928571Y-68904761D01*
X168833333Y-68809523D01*
X168785714Y-68714285D01*
X168738095Y-68523809D01*
X168738095Y-68380952D01*
X168785714Y-68190476D01*
X168833333Y-68095238D01*
X168928571Y-68000000D01*
X169071428Y-67952380D01*
X169166666Y-67952380D01*
X169309523Y-68000000D01*
X169357142Y-68047619D01*
X170309523Y-68952380D02*
X169738095Y-68952380D01*
X170023809Y-68952380D02*
X170023809Y-67952380D01*
X169928571Y-68095238D01*
X169833333Y-68190476D01*
X169738095Y-68238095D01*
X171261904Y-68952380D02*
X170690476Y-68952380D01*
X170976190Y-68952380D02*
X170976190Y-67952380D01*
X170880952Y-68095238D01*
X170785714Y-68190476D01*
X170690476Y-68238095D01*
%TO.C,C8*%
X177833333Y-68857142D02*
X177785714Y-68904761D01*
X177642857Y-68952380D01*
X177547619Y-68952380D01*
X177404761Y-68904761D01*
X177309523Y-68809523D01*
X177261904Y-68714285D01*
X177214285Y-68523809D01*
X177214285Y-68380952D01*
X177261904Y-68190476D01*
X177309523Y-68095238D01*
X177404761Y-68000000D01*
X177547619Y-67952380D01*
X177642857Y-67952380D01*
X177785714Y-68000000D01*
X177833333Y-68047619D01*
X178404761Y-68380952D02*
X178309523Y-68333333D01*
X178261904Y-68285714D01*
X178214285Y-68190476D01*
X178214285Y-68142857D01*
X178261904Y-68047619D01*
X178309523Y-68000000D01*
X178404761Y-67952380D01*
X178595238Y-67952380D01*
X178690476Y-68000000D01*
X178738095Y-68047619D01*
X178785714Y-68142857D01*
X178785714Y-68190476D01*
X178738095Y-68285714D01*
X178690476Y-68333333D01*
X178595238Y-68380952D01*
X178404761Y-68380952D01*
X178309523Y-68428571D01*
X178261904Y-68476190D01*
X178214285Y-68571428D01*
X178214285Y-68761904D01*
X178261904Y-68857142D01*
X178309523Y-68904761D01*
X178404761Y-68952380D01*
X178595238Y-68952380D01*
X178690476Y-68904761D01*
X178738095Y-68857142D01*
X178785714Y-68761904D01*
X178785714Y-68571428D01*
X178738095Y-68476190D01*
X178690476Y-68428571D01*
X178595238Y-68380952D01*
%TO.C,U2*%
X147238095Y-86952380D02*
X147238095Y-87761904D01*
X147285714Y-87857142D01*
X147333333Y-87904761D01*
X147428571Y-87952380D01*
X147619047Y-87952380D01*
X147714285Y-87904761D01*
X147761904Y-87857142D01*
X147809523Y-87761904D01*
X147809523Y-86952380D01*
X148238095Y-87047619D02*
X148285714Y-87000000D01*
X148380952Y-86952380D01*
X148619047Y-86952380D01*
X148714285Y-87000000D01*
X148761904Y-87047619D01*
X148809523Y-87142857D01*
X148809523Y-87238095D01*
X148761904Y-87380952D01*
X148190476Y-87952380D01*
X148809523Y-87952380D01*
%TO.C,U1*%
X173238095Y-86952380D02*
X173238095Y-87761904D01*
X173285714Y-87857142D01*
X173333333Y-87904761D01*
X173428571Y-87952380D01*
X173619047Y-87952380D01*
X173714285Y-87904761D01*
X173761904Y-87857142D01*
X173809523Y-87761904D01*
X173809523Y-86952380D01*
X174809523Y-87952380D02*
X174238095Y-87952380D01*
X174523809Y-87952380D02*
X174523809Y-86952380D01*
X174428571Y-87095238D01*
X174333333Y-87190476D01*
X174238095Y-87238095D01*
%TO.C,J3*%
X166666666Y-52952380D02*
X166666666Y-53666666D01*
X166619047Y-53809523D01*
X166523809Y-53904761D01*
X166380952Y-53952380D01*
X166285714Y-53952380D01*
X167047619Y-52952380D02*
X167666666Y-52952380D01*
X167333333Y-53333333D01*
X167476190Y-53333333D01*
X167571428Y-53380952D01*
X167619047Y-53428571D01*
X167666666Y-53523809D01*
X167666666Y-53761904D01*
X167619047Y-53857142D01*
X167571428Y-53904761D01*
X167476190Y-53952380D01*
X167190476Y-53952380D01*
X167095238Y-53904761D01*
X167047619Y-53857142D01*
X165989999Y-54383280D02*
X165989999Y-54621376D01*
X165751903Y-54526138D02*
X165989999Y-54621376D01*
X166228094Y-54526138D01*
X165847141Y-54811852D02*
X165989999Y-54621376D01*
X166132856Y-54811852D01*
X165989999Y-54383280D02*
X165989999Y-54621376D01*
X165751903Y-54526138D02*
X165989999Y-54621376D01*
X166228094Y-54526138D01*
X165847141Y-54811852D02*
X165989999Y-54621376D01*
X166132856Y-54811852D01*
%TO.C,J1*%
X154076666Y-101401718D02*
X154076666Y-102116004D01*
X154029047Y-102258861D01*
X153933809Y-102354099D01*
X153790952Y-102401718D01*
X153695714Y-102401718D01*
X155076666Y-102401718D02*
X154505238Y-102401718D01*
X154790952Y-102401718D02*
X154790952Y-101401718D01*
X154695714Y-101544576D01*
X154600476Y-101639814D01*
X154505238Y-101687433D01*
%TD*%
M02*
