%TF.GenerationSoftware,KiCad,Pcbnew,5.1.9+dfsg1-1*%
%TF.CreationDate,2023-01-11T12:06:23+00:00*%
%TF.ProjectId,Atari_ST_HDD_EMULATOR,41746172-695f-4535-945f-4844445f454d,1.0_dh219*%
%TF.SameCoordinates,Original*%
%TF.FileFunction,Soldermask,Bot*%
%TF.FilePolarity,Negative*%
%FSLAX46Y46*%
G04 Gerber Fmt 4.6, Leading zero omitted, Abs format (unit mm)*
G04 Created by KiCad (PCBNEW 5.1.9+dfsg1-1) date 2023-01-11 12:06:23*
%MOMM*%
%LPD*%
G01*
G04 APERTURE LIST*
%ADD10O,1.700000X1.700000*%
%ADD11R,3.500000X1.700000*%
%ADD12R,1.700000X1.700000*%
%ADD13O,1.500000X1.500000*%
%ADD14O,1.800000X1.800000*%
%ADD15R,1.700000X3.500000*%
%ADD16C,1.700000*%
%ADD17C,1.600000*%
%ADD18R,1.600000X1.600000*%
%ADD19C,0.700000*%
G04 APERTURE END LIST*
D10*
%TO.C,U4*%
X131100000Y-70460000D03*
D11*
X130200000Y-70460000D03*
D12*
X131100000Y-73000000D03*
D11*
X130200000Y-73000000D03*
D10*
X131100000Y-75540000D03*
D11*
X130200000Y-75540000D03*
D13*
X175970000Y-70575000D03*
X175970000Y-75425000D03*
D14*
X179000000Y-70275000D03*
X179000000Y-75725000D03*
D15*
X130870000Y-63210000D03*
X133410000Y-63210000D03*
X135950000Y-63210000D03*
X138490000Y-63210000D03*
X141030000Y-63210000D03*
X143570000Y-63210000D03*
X146110000Y-63210000D03*
X148650000Y-63210000D03*
X151190000Y-63210000D03*
X153730000Y-63210000D03*
X156270000Y-63210000D03*
X158810000Y-63210000D03*
X161350000Y-63210000D03*
X163890000Y-63210000D03*
X166430000Y-63210000D03*
X168970000Y-63210000D03*
X171510000Y-63210000D03*
X174050000Y-63210000D03*
X176590000Y-63210000D03*
X179130000Y-63210000D03*
X130870000Y-82790000D03*
X133410000Y-82790000D03*
X135950000Y-82790000D03*
X138490000Y-82790000D03*
X141030000Y-82790000D03*
X143570000Y-82790000D03*
X146110000Y-82790000D03*
X148650000Y-82790000D03*
X151190000Y-82790000D03*
X153730000Y-82790000D03*
X156270000Y-82790000D03*
X158810000Y-82790000D03*
X161350000Y-82790000D03*
X163890000Y-82790000D03*
X166430000Y-82790000D03*
X168970000Y-82790000D03*
X171510000Y-82790000D03*
X174050000Y-82790000D03*
X176590000Y-82790000D03*
X179130000Y-82790000D03*
D10*
X179130000Y-64110000D03*
X176590000Y-64110000D03*
D12*
X174050000Y-64110000D03*
D10*
X171510000Y-64110000D03*
X168970000Y-64110000D03*
X166430000Y-64110000D03*
X163890000Y-64110000D03*
D12*
X161350000Y-64110000D03*
D10*
X158810000Y-64110000D03*
X156270000Y-64110000D03*
X153730000Y-64110000D03*
X151190000Y-64110000D03*
D12*
X148650000Y-64110000D03*
D10*
X146110000Y-64110000D03*
X143570000Y-64110000D03*
X141030000Y-64110000D03*
X138490000Y-64110000D03*
D12*
X135950000Y-64110000D03*
D10*
X133410000Y-64110000D03*
X130870000Y-64110000D03*
X130870000Y-81890000D03*
X133410000Y-81890000D03*
D12*
X135950000Y-81890000D03*
D10*
X138490000Y-81890000D03*
X141030000Y-81890000D03*
X143570000Y-81890000D03*
X146110000Y-81890000D03*
D12*
X148650000Y-81890000D03*
D10*
X151190000Y-81890000D03*
X153730000Y-81890000D03*
X156270000Y-81890000D03*
X158810000Y-81890000D03*
D12*
X161350000Y-81890000D03*
D10*
X163890000Y-81890000D03*
X166430000Y-81890000D03*
X168970000Y-81890000D03*
X171510000Y-81890000D03*
D12*
X174050000Y-81890000D03*
D10*
X176590000Y-81890000D03*
X179130000Y-81890000D03*
%TD*%
D16*
%TO.C,J2*%
X165860000Y-119040000D03*
X163320000Y-119040000D03*
X160780000Y-119040000D03*
X158240000Y-119040000D03*
X155700000Y-119040000D03*
X153160000Y-119040000D03*
X150620000Y-119040000D03*
X148080000Y-119040000D03*
X145540000Y-119040000D03*
X143000000Y-119040000D03*
X165860000Y-116500000D03*
X163320000Y-116500000D03*
X160780000Y-116500000D03*
X158240000Y-116500000D03*
X155700000Y-116500000D03*
X153160000Y-116500000D03*
X150620000Y-116500000D03*
X148080000Y-116500000D03*
X145540000Y-116500000D03*
G36*
G01*
X142400000Y-115650000D02*
X143600000Y-115650000D01*
G75*
G02*
X143850000Y-115900000I0J-250000D01*
G01*
X143850000Y-117100000D01*
G75*
G02*
X143600000Y-117350000I-250000J0D01*
G01*
X142400000Y-117350000D01*
G75*
G02*
X142150000Y-117100000I0J250000D01*
G01*
X142150000Y-115900000D01*
G75*
G02*
X142400000Y-115650000I250000J0D01*
G01*
G37*
%TD*%
D17*
%TO.C,J1*%
X169645000Y-110679338D03*
X166875000Y-110679338D03*
X164105000Y-110679338D03*
X161335000Y-110679338D03*
X158565000Y-110679338D03*
X155795000Y-110679338D03*
X153025000Y-110679338D03*
X150255000Y-110679338D03*
X147485000Y-110679338D03*
X144715000Y-110679338D03*
X141945000Y-110679338D03*
X139175000Y-110679338D03*
X171030000Y-107839338D03*
X168260000Y-107839338D03*
X165490000Y-107839338D03*
X162720000Y-107839338D03*
X159950000Y-107839338D03*
X157180000Y-107839338D03*
X154410000Y-107839338D03*
X151640000Y-107839338D03*
X148870000Y-107839338D03*
X146100000Y-107839338D03*
X143330000Y-107839338D03*
X140560000Y-107839338D03*
D18*
X137790000Y-107839338D03*
%TD*%
D19*
X139000000Y-97500000D03*
X144500000Y-97500000D03*
X139500000Y-87000000D03*
X145000000Y-87000000D03*
X132000000Y-92000000D03*
X158500000Y-92000000D03*
X146500000Y-99500000D03*
X164000000Y-70999996D03*
X133500000Y-75000000D03*
X142000000Y-77500000D03*
X146000000Y-77500000D03*
X142500000Y-68500000D03*
X167063407Y-96880000D03*
X170000000Y-96880000D03*
X179000000Y-89000000D03*
X170500000Y-57500000D03*
X145500000Y-57500000D03*
X147500000Y-55000000D03*
X161500000Y-55000000D03*
X172500000Y-54999996D03*
X136500000Y-55000000D03*
X138588719Y-72223977D03*
X179500000Y-85500000D03*
X179500000Y-79500000D03*
X150000000Y-92500000D03*
X157500000Y-101000008D03*
X152000000Y-101000000D03*
X138500004Y-101000000D03*
X158000000Y-74500000D03*
X151000000Y-74500000D03*
X147500000Y-74500000D03*
X175500000Y-91000000D03*
X175438414Y-92938414D03*
X148750000Y-53750000D03*
X156000000Y-53500002D03*
X151500000Y-89000000D03*
X154500000Y-89000000D03*
X148500008Y-90500000D03*
X146500000Y-87000000D03*
X152261772Y-87593780D03*
X153500000Y-87000000D03*
X150000000Y-86973770D03*
X165750000Y-96500000D03*
X165100000Y-97500000D03*
X164450000Y-96500000D03*
X163800000Y-97500000D03*
X163150000Y-96500000D03*
X162500000Y-97500000D03*
X161850000Y-96500000D03*
X161200000Y-97500000D03*
X152000000Y-50880000D03*
X161500000Y-50880000D03*
X131000000Y-51500000D03*
X145000000Y-51500000D03*
X169500000Y-51500000D03*
X143000000Y-59000000D03*
X138500000Y-59000000D03*
X167500000Y-52120000D03*
X143000000Y-52379990D03*
X165500000Y-53500000D03*
X141000000Y-53000000D03*
X138500000Y-50880000D03*
X150000002Y-50880000D03*
X165000000Y-87120000D03*
X165000000Y-85500000D03*
X137000000Y-70500000D03*
X141000000Y-78500000D03*
M02*
